[Header]
FileType HTR
DataType HTRS
FileVersion 1
NumSegments 64
NumFrames 3
DataFrameRate 24
EulerRotationOrder ZYX
CalibrationUnits mm
RotationUnits Degrees
GlobalAxisofGravity Y
BoneLengthAxis Y
ScaleFactor 1.0
[SegmentNames&Hierarchy]
Hips	GLOBAL
Spine	Hips
Spine1	Spine
Spine2	Spine1
Neck	Spine2
Head	Neck
LeftEye	Head
RightEye	Head
LeftShoulder	Spine2
LeftArm	LeftShoulder
LeftForeArm	LeftArm
LeftHand	LeftForeArm
LeftHandThumb1	LeftHand
LeftHandThumb2	LeftHandThumb1
LeftHandThumb3	LeftHandThumb2
LeftHandThumb4	LeftHandThumb3
LeftHandIndex1	LeftHand
LeftHandIndex2	LeftHandIndex1
LeftHandIndex3	LeftHandIndex2
LeftHandIndex4	LeftHandIndex3
LeftHandMiddle1	LeftHand
LeftHandMiddle2	LeftHandMiddle1
LeftHandMiddle3	LeftHandMiddle2
LeftHandMiddle4	LeftHandMiddle3
LeftHandRing1	LeftHand
LeftHandRing2	LeftHandRing1
LeftHandRing3	LeftHandRing2
LeftHandRing4	LeftHandRing3
LeftHandPinky1	LeftHand
LeftHandPinky2	LeftHandPinky1
LeftHandPinky3	LeftHandPinky2
LeftHandPinky4	LeftHandPinky3
RightShoulder	Spine2
RightArm	RightShoulder
RightForeArm	RightArm
RightHand	RightForeArm
RightHandPinky1	RightHand
RightHandPinky2	RightHandPinky1
RightHandPinky3	RightHandPinky2
RightHandPinky4	RightHandPinky3
RightHandRing1	RightHand
RightHandRing2	RightHandRing1
RightHandRing3	RightHandRing2
RightHandRing4	RightHandRing3
RightHandMiddle1	RightHand
RightHandMiddle2	RightHandMiddle1
RightHandMiddle3	RightHandMiddle2
RightHandMiddle4	RightHandMiddle3
RightHandIndex1	RightHand
RightHandIndex2	RightHandIndex1
RightHandIndex3	RightHandIndex2
RightHandIndex4	RightHandIndex3
RightHandThumb1	RightHand
RightHandThumb2	RightHandThumb1
RightHandThumb3	RightHandThumb2
RightHandThumb4	RightHandThumb3
LeftUpLeg	Hips
LeftLeg	LeftUpLeg
LeftFoot	LeftLeg
LeftToeBase	LeftFoot
RightUpLeg	Hips
RightLeg	RightUpLeg
RightFoot	RightLeg
RightToeBase	RightFoot
[BasePosition]
Hips	0	0	0	0	0	0	1
Spine	0	0	0	0	0	0	1
Spine1	0	0	0	0	0	0	1
Spine2	0	0	0	0	0	0	1
Neck	0	0	0	0	0	0	1
Head	0	0	0	0	0	0	1
LeftEye	0	0	0	0	0	0	1
RightEye	0	0	0	0	0	0	1
LeftShoulder	0	0	0	0	0	0	1
LeftArm	0	0	0	0	0	0	1
LeftForeArm	0	0	0	0	0	0	1
LeftHand	0	0	0	0	0	0	1
LeftHandThumb1	0	0	0	0	0	0	1
LeftHandThumb2	0	0	0	0	0	0	1
LeftHandThumb3	0	0	0	0	0	0	1
LeftHandThumb4	0	0	0	0	0	0	1
LeftHandIndex1	0	0	0	0	0	0	1
LeftHandIndex2	0	0	0	0	0	0	1
LeftHandIndex3	0	0	0	0	0	0	1
LeftHandIndex4	0	0	0	0	0	0	1
LeftHandMiddle1	0	0	0	0	0	0	1
LeftHandMiddle2	0	0	0	0	0	0	1
LeftHandMiddle3	0	0	0	0	0	0	1
LeftHandMiddle4	0	0	0	0	0	0	1
LeftHandRing1	0	0	0	0	0	0	1
LeftHandRing2	0	0	0	0	0	0	1
LeftHandRing3	0	0	0	0	0	0	1
LeftHandRing4	0	0	0	0	0	0	1
LeftHandPinky1	0	0	0	0	0	0	1
LeftHandPinky2	0	0	0	0	0	0	1
LeftHandPinky3	0	0	0	0	0	0	1
LeftHandPinky4	0	0	0	0	0	0	1
RightShoulder	0	0	0	0	0	0	1
RightArm	0	0	0	0	0	0	1
RightForeArm	0	0	0	0	0	0	1
RightHand	0	0	0	0	0	0	1
RightHandPinky1	0	0	0	0	0	0	1
RightHandPinky2	0	0	0	0	0	0	1
RightHandPinky3	0	0	0	0	0	0	1
RightHandPinky4	0	0	0	0	0	0	1
RightHandRing1	0	0	0	0	0	0	1
RightHandRing2	0	0	0	0	0	0	1
RightHandRing3	0	0	0	0	0	0	1
RightHandRing4	0	0	0	0	0	0	1
RightHandMiddle1	0	0	0	0	0	0	1
RightHandMiddle2	0	0	0	0	0	0	1
RightHandMiddle3	0	0	0	0	0	0	1
RightHandMiddle4	0	0	0	0	0	0	1
RightHandIndex1	0	0	0	0	0	0	1
RightHandIndex2	0	0	0	0	0	0	1
RightHandIndex3	0	0	0	0	0	0	1
RightHandIndex4	0	0	0	0	0	0	1
RightHandThumb1	0	0	0	0	0	0	1
RightHandThumb2	0	0	0	0	0	0	1
RightHandThumb3	0	0	0	0	0	0	1
RightHandThumb4	0	0	0	0	0	0	1
LeftUpLeg	0	0	0	0	0	0	1
LeftLeg	0	0	0	0	0	0	1
LeftFoot	0	0	0	0	0	0	1
LeftToeBase	0	0	0	0	0	0	1
RightUpLeg	0	0	0	0	0	0	1
RightLeg	0	0	0	0	0	0	1
RightFoot	0	0	0	0	0	0	1
RightToeBase	0	0	0	0	0	0	1
[Hips]
27	30.37183762	1016.648804	-29.99142075	-48.90195847	82.80527496	-48.23142624	1.0
28	23.2991581	1016.593262	-15.58648872	-74.20152283	84.39657593	-73.3807373	1.0
29	15.56502247	1016.516968	-4.681062222	-103.9168167	84.48719788	-102.961731	1.0
[Spine]
27	0	101.8159943	1.315000057	1.356564403	-2.333493471	2.928219557	1.0
28	0	101.8159943	1.315000057	1.296854377	-1.811282992	2.955454826	1.0
29	0	101.8159943	1.315000057	1.233510852	-1.264044285	2.978497028	1.0
[Spine1]
27	0	100.8349991	-10.00800037	0.6567294598	-0.9827961326	6.175478935	1.0
28	0	100.8349991	-10.00800037	0.7046877742	-0.4077640474	6.072290897	1.0
29	0	100.8349991	-10.00800037	0.7521908879	0.1872868538	5.947594166	1.0
[Spine2]
27	0	91	-13.73399925	0.6007342935	-0.4508887529	6.106884956	1.0
28	0	91	-13.73399925	0.6935114861	0.1171150357	5.994824886	1.0
29	0	91	-13.73399925	0.786823988	0.704882443	5.861687183	1.0
[Neck]
27	0	166.7169952	-25.16200066	1.684606075	1.719103098	-1.862519383	1.0
28	0	166.7169952	-25.16200066	1.366454244	0.7069786787	-2.010500431	1.0
29	0	166.7169952	-25.16200066	1.056079865	-0.2649637759	-2.169208527	1.0
[Head]
27	0	96.17900085	16.84999847	1.462082624	5.377036572	-8.924798012	1.0
28	0	96.17900085	16.84999847	1.516879201	3.009496689	-8.499614716	1.0
29	0	96.17900085	16.84999847	1.492034674	0.7629149556	-8.123030663	1.0
[LeftEye]
27	30.6760006	64.09500122	92.83599854	0	0	0	1.0
28	30.6760006	64.09500122	92.83599854	0	0	0	1.0
29	30.6760006	64.09500122	92.83599854	0	0	0	1.0
[RightEye]
27	-30.6760006	64.09500122	92.83499908	0	0	0	1.0
28	-30.6760006	64.09500122	92.83499908	0	0	0	1.0
29	-30.6760006	64.09500122	92.83499908	0	0	0	1.0
[LeftShoulder]
27	45.70400238	109.4599991	-26.28000069	4.725529194	-13.71420574	-5.317211628	1.0
28	45.70400238	109.4599991	-26.28000069	4.81240797	-13.53915215	-5.680782795	1.0
29	45.70400238	109.4599991	-26.28000069	4.900876999	-13.35861874	-6.051226616	1.0
[LeftArm]
27	105.923996	-5.24600029	-22.32099915	-1.713060379	4.062907696	-84.04782104	1.0
28	105.923996	-5.24600029	-22.32099915	-2.342324734	4.207503319	-83.87055206	1.0
29	105.923996	-5.24600029	-22.32099915	-3.048738956	4.39500761	-83.67140961	1.0
[LeftForeArm]
27	278.414978	-0.0009999999311	0	7.923662452e-06	-14.6007061	-0.0002198176808	1.0
28	278.414978	-0.0009999999311	0	3.20523327e-06	-14.60502338	-0.0002070127084	1.0
29	278.414978	-0.0009999999311	0	-1.212217921e-05	-14.50673294	-0.0002100143029	1.0
[LeftHand]
27	283.2879944	0	0	-29.05962753	1.37386477	-9.051981926	1.0
28	283.2879944	0	0	-28.44425392	0.1719535291	-9.559466362	1.0
29	283.2879944	0	0	-27.77380371	-1.110144019	-10.05005169	1.0
[LeftHandThumb1]
27	24.6609993	-15.75	26.8239994	18.77456856	-2.673309565	10.12564659	1.0
28	24.6609993	-15.75	26.8239994	18.44751549	-3.252411366	10.16954517	1.0
29	24.6609993	-15.75	26.8239994	18.09017944	-3.880738735	10.23081303	1.0
[LeftHandThumb2]
27	32.29800034	-18.64699936	18.64699936	-0.4208336174	32.09028625	-2.84607625	1.0
28	32.29800034	-18.64699936	18.64699936	-0.4391839504	32.42155457	-2.849914312	1.0
29	32.29800034	-18.64699936	18.64699936	-0.4590755701	32.77693176	-2.855214119	1.0
[LeftHandThumb3]
27	26.52600098	-15.31499958	15.31499958	2.085173368	9.149044037	-0.1085761786	1.0
28	26.52600098	-15.31499958	15.31499958	2.086566448	9.231139183	-0.07029490918	1.0
29	26.52600098	-15.31499958	15.31499958	2.087850809	9.317594528	-0.01895177551	1.0
[LeftHandThumb4]
27	19.54599953	-11.28499985	11.28499985	0	0	0	1.0
28	19.54599953	-11.28499985	11.28499985	0	0	0	1.0
29	19.54599953	-11.28499985	11.28499985	0	0	0	1.0
[LeftHandIndex1]
27	91.09299469	-5.170999527	22.60099792	-0.1836906523	4.495223999	-6.475143433	1.0
28	91.09299469	-5.170999527	22.60099792	-0.2414475828	4.579921722	-7.14355135	1.0
29	91.09299469	-5.170999527	22.60099792	-0.3012968898	4.670438766	-7.844815254	1.0
[LeftHandIndex2]
27	36.76399994	0	0	-0.6325348616	2.778394222	-20.66189194	1.0
28	36.76399994	0	0	-0.6304906011	2.774591684	-20.61938667	1.0
29	36.76399994	0	0	-0.6282450557	2.770452261	-20.57315063	1.0
[LeftHandIndex3]
27	28.83100128	0	0	-0.1113199145	0.8143270612	-10.25926876	1.0
28	28.83100128	0	0	-0.1105616018	0.8101244569	-10.21687031	1.0
29	28.83100128	0	0	-0.1097443774	0.8055528402	-10.17071342	1.0
[LeftHandIndex4]
27	23.92700005	0	0	0	0	0	1.0
28	23.92700005	0	0	0	0	0	1.0
29	23.92700005	0	0	0	0	0	1.0
[LeftHandMiddle1]
27	95.33399963	0	0	-1.407418489	8.526053429	-14.93340969	1.0
28	95.33399963	0	0	-1.463194013	8.600346565	-15.39702606	1.0
29	95.33399963	0	0	-1.521758437	8.677763939	-15.88117313	1.0
[LeftHandMiddle2]
27	36.98199844	0	0	-1.425028324	3.82136178	-33.39068222	1.0
28	36.98199844	0	0	-1.425963521	3.82241416	-33.40423965	1.0
29	36.98199844	0	0	-1.426877856	3.823388577	-33.41780472	1.0
[LeftHandMiddle3]
27	29.50900078	0	0	-0.1483786106	1.482941389	-12.23672485	1.0
28	29.50900078	0	0	-0.1487050503	1.484261632	-12.25074291	1.0
29	29.50900078	0	0	-0.1490291804	1.485662222	-12.26479435	1.0
[LeftHandMiddle4]
27	28.3390007	0	0	0	0	0	1.0
28	28.3390007	0	0	0	0	0	1.0
29	28.3390007	0	0	0	0	0	1.0
[LeftHandRing1]
27	91.04499817	-0.4390000105	-18.65100098	-2.918635607	11.55473995	-26.14978981	1.0
28	91.04499817	-0.4390000105	-18.65100098	-2.969907284	11.55351734	-26.54599953	1.0
29	91.04499817	-0.4390000105	-18.65100098	-3.02337718	11.54990387	-26.95899582	1.0
[LeftHandRing2]
27	31.54000092	0	0	-1.199922562	4.058610916	-40.24146652	1.0
28	31.54000092	0	0	-1.198812127	4.057201385	-40.22325516	1.0
29	31.54000092	0	0	-1.197494745	4.055521488	-40.20160675	1.0
[LeftHandRing3]
27	29.37700081	0	0	-0.09320891649	1.907351375	-19.37888336	1.0
28	29.37700081	0	0	-0.0927670598	1.905535698	-19.36008072	1.0
29	29.37700081	0	0	-0.09224072099	1.903383017	-19.33780098	1.0
[LeftHandRing4]
27	26.47500038	0	0	0	0	0	1.0
28	26.47500038	0	0	0	0	0	1.0
29	26.47500038	0	0	0	0	0	1.0
[LeftHandPinky1]
27	80.77799988	-4.887000084	-38.06099701	-5.101101875	16.02094078	-36.10159302	1.0
28	80.77799988	-4.887000084	-38.06099701	-5.160014153	16.07317734	-36.4913559	1.0
29	80.77799988	-4.887000084	-38.06099701	-5.22220993	16.12825775	-36.90261841	1.0
[LeftHandPinky2]
27	36	0	0	-1.957062602	3.827493906	-45.81550217	1.0
28	36	0	0	-1.951610565	3.822743416	-45.74311829	1.0
29	36	0	0	-1.945609093	3.817494392	-45.66317368	1.0
[LeftHandPinky3]
27	21.14200211	0	0	-0.5499045253	2.84747982	-20.67923355	1.0
28	21.14200211	0	0	-0.5467889905	2.84095335	-20.60705948	1.0
29	21.14200211	0	0	-0.5433565974	2.833786488	-20.5273304	1.0
[LeftHandPinky4]
27	19.75699997	0	0	0	0	0	1.0
28	19.75699997	0	0	0	0	0	1.0
29	19.75699997	0	0	0	0	0	1.0
[RightShoulder]
27	-45.70000076	109.4620056	-26.28000069	4.838276863	2.428022623	6.135615349	1.0
28	-45.70000076	109.4620056	-26.28000069	4.824552536	2.647401094	5.929341793	1.0
29	-45.70000076	109.4620056	-26.28000069	4.81045866	2.868920803	5.72298336	1.0
[RightArm]
27	-105.9280014	-5.248000145	-22.32099915	0.2228974849	2.301809788	66.63796234	1.0
28	-105.9280014	-5.248000145	-22.32099915	0.1776849926	1.868846059	66.98545837	1.0
29	-105.9280014	-5.248000145	-22.32099915	0.135408476	1.378124833	67.34008026	1.0
[RightForeArm]
27	-278.414978	0	0	-3.469066087e-06	18.16828537	4.813299711e-06	1.0
28	-278.414978	0	0	8.620657354e-06	17.95758629	1.845430461e-06	1.0
29	-278.414978	0	0	-6.272289852e-07	17.73658562	-3.247394943e-06	1.0
[RightHand]
27	-283.2879944	0	0.0009999999311	-12.73955917	-6.019661427	11.6889019	1.0
28	-283.2879944	0	0.0009999999311	-12.70464611	-6.412091255	11.74418545	1.0
29	-283.2879944	0	0.0009999999311	-12.68406487	-6.830761909	11.79688644	1.0
[RightHandPinky1]
27	-80.76699829	-4.885000229	-38.06000137	-5.226127148	-16.07934761	36.96059799	1.0
28	-80.76699829	-4.885000229	-38.06000137	-5.225110054	-16.10125732	36.94064331	1.0
29	-80.76699829	-4.885000229	-38.06000137	-5.222103119	-16.12936401	36.90295029	1.0
[RightHandPinky2]
27	-36	0	0.0009999999311	-1.944586396	-3.816135406	45.66808701	1.0
28	-36	0	0.0009999999311	-1.944451451	-3.816029787	45.66630554	1.0
29	-36	0	0.0009999999311	-1.944211006	-3.815832138	45.66313934	1.0
[RightHandPinky3]
27	-21.14200211	0	0	-0.765655458	0.05434060097	22.12891197	1.0
28	-21.14200211	0	0	-0.7655767202	0.05449782312	22.1271534	1.0
29	-21.14200211	0	0	-0.7654359937	0.05477075279	22.12399101	1.0
[RightHandPinky4]
27	-19.75699997	0	0	0	0	0	1.0
28	-19.75699997	0	0	0	0	0	1.0
29	-19.75699997	0	0	0	0	0	1.0
[RightHandRing1]
27	-91.03599548	-0.4390000105	-18.65100098	-3.030462265	-11.52949429	27.02157402	1.0
28	-91.03599548	-0.4390000105	-18.65100098	-3.028157473	-11.53822041	27.00073242	1.0
29	-91.03599548	-0.4390000105	-18.65100098	-3.023289919	-11.54952431	26.9591217	1.0
[RightHandRing2]
27	-31.54000092	0	0	-1.196273923	-4.05368948	40.18479538	1.0
28	-31.54000092	0	0	-1.196878195	-4.054471493	40.19488144	1.0
29	-31.54000092	0	0	-1.197292089	-4.055002689	40.20164871	1.0
[RightHandRing3]
27	-29.37700081	0	0	-0.1379424185	0.09174754471	17.79762268	1.0
28	-29.37700081	0	0	-0.138154909	0.09077955782	17.80798149	1.0
29	-29.37700081	0	0	-0.1383125782	0.0900606215	17.81515884	1.0
[RightHandRing4]
27	-26.47500038	0	0	0	0	0	1.0
28	-26.47500038	0	0	0	0	0	1.0
29	-26.47500038	0	0	0	0	0	1.0
[RightHandMiddle1]
27	-95.32500458	0	0	-1.534935355	-8.677541733	15.9915266	1.0
28	-95.32500458	0	0	-1.529747605	-8.678442955	15.94818306	1.0
29	-95.32500458	0	0	-1.521721482	-8.677520752	15.88128471	1.0
[RightHandMiddle2]
27	-36.98199844	0	0	-1.426306367	-3.822473526	33.41130829	1.0
28	-36.98199844	0	0	-1.426725745	-3.822930098	33.41736984	1.0
29	-36.98199844	0	0	-1.426760077	-3.822966337	33.41784286	1.0
[RightHandMiddle3]
27	-29.50900078	0	0	-0.2532653511	-1.677611828	15.8926363	1.0
28	-29.50900078	0	0	-0.2534438372	-1.678203583	15.89878368	1.0
29	-29.50900078	0	0	-0.2534548342	-1.67823863	15.89937496	1.0
[RightHandMiddle4]
27	-28.3390007	0	0.0009999999311	0	0	0	1.0
28	-28.3390007	0	0.0009999999311	0	0	0	1.0
29	-28.3390007	0	0.0009999999311	0	0	0	1.0
[RightHandIndex1]
27	-91.08300018	-5.167999744	22.60099792	-0.3155394793	-4.65613842	7.934810162	1.0
28	-91.08300018	-5.167999744	22.60099792	-0.3099623919	-4.663520813	7.902515888	1.0
29	-91.08300018	-5.167999744	22.60099792	-0.3012776375	-4.67032814	7.844894886	1.0
[RightHandIndex2]
27	-36.76399994	0	0	-0.6286711097	-2.771042824	20.58300209	1.0
28	-36.76399994	0	0	-0.6285178065	-2.770817757	20.58013916	1.0
29	-36.76399994	0	0	-0.6281821728	-2.770170689	20.57317162	1.0
[RightHandIndex3]
27	-28.83100128	0	0	-0.2387489825	-0.1584368795	13.8545084	1.0
28	-28.83100128	0	0	-0.238667354	-0.1581445932	13.85168076	1.0
29	-28.83100128	0	0	-0.2385151535	-0.1574614793	13.84472179	1.0
[RightHandIndex4]
27	-23.92700005	0	0	0	0	0	1.0
28	-23.92700005	0	0	0	0	0	1.0
29	-23.92700005	0	0	0	0	0	1.0
[RightHandThumb1]
27	-24.64799881	-15.72700024	26.82600021	17.97843933	3.965677738	-10.2698555	1.0
28	-24.64799881	-15.72700024	26.82600021	18.02253151	3.925569057	-10.2587738	1.0
29	-24.64799881	-15.72700024	26.82600021	18.08983994	3.8809762	-10.23104191	1.0
[RightHandThumb2]
27	-32.29800034	-18.64699936	18.64699936	-0.4964923859	-32.8459053	2.916334152	1.0
28	-32.29800034	-18.64699936	18.64699936	-0.4752584994	-32.81987	2.891597986	1.0
29	-32.29800034	-18.64699936	18.64699936	-0.4598009288	-32.77560043	2.856993914	1.0
[RightHandThumb3]
27	-26.52600098	-15.31399918	15.31399918	1.857678056	-8.435564041	0.8223606348	1.0
28	-26.52600098	-15.31399918	15.31399918	1.861878157	-8.449374199	0.8260950446	1.0
29	-26.52600098	-15.31399918	15.31399918	1.866258621	-8.463832855	0.8300136924	1.0
[RightHandThumb4]
27	-19.54599953	-11.28499985	11.28499985	0	0	0	1.0
28	-19.54599953	-11.28499985	11.28499985	0	0	0	1.0
29	-19.54599953	-11.28499985	11.28499985	0	0	0	1.0
[LeftUpLeg]
27	82.07800293	-67.51699829	-15.99599934	-15.36283779	15.61046982	10.94328499	1.0
28	82.07800293	-67.51699829	-15.99599934	-15.88969994	15.31873989	11.55300045	1.0
29	82.07800293	-67.51699829	-15.99599934	-16.47162056	15.18129921	11.84121895	1.0
[LeftLeg]
27	0	-443.7049866	2.845999956	25.12559128	8.162228584	6.373421192	1.0
28	0	-443.7049866	2.845999956	23.91122627	8.209186554	6.152961731	1.0
29	0	-443.7049866	2.845999956	22.67180634	7.90066576	5.783998489	1.0
[LeftFoot]
27	0	-444.2789917	-29.8219986	-5.76707983	7.782536507	-9.405912399	1.0
28	0	-444.2789917	-29.8219986	-3.811054945	5.131083488	-9.191500664	1.0
29	0	-444.2789917	-29.8219986	-2.009680748	3.081558943	-8.876466751	1.0
[LeftToeBase]
27	0	-87.28699493	107.1060028	-0.4328432977	-9.508758012e-06	9.01108308e-07	1.0
28	0	-87.28699493	107.1060028	-0.4328449667	1.842140773e-05	7.722387636e-07	1.0
29	0	-87.28699493	107.1060028	-0.4328451157	-1.54513873e-05	2.840415618e-06	1.0
[RightUpLeg]
27	-82.07800293	-67.51699829	-15.99599934	-2.84304285	-2.58238554	9.295375824	1.0
28	-82.07800293	-67.51699829	-15.99599934	-2.55631566	-3.534898996	10.07534599	1.0
29	-82.07800293	-67.51699829	-15.99599934	-2.491723061	-4.584992886	10.7162323	1.0
[RightLeg]
27	0	-443.7049866	2.861999989	14.29471684	-0.2151015848	2.756771803	1.0
28	0	-443.7049866	2.861999989	13.18155193	-2.385513544	2.519913435	1.0
29	0	-443.7049866	2.861999989	12.1811924	-5.663785934	2.108501911	1.0
[RightFoot]
27	0	-444.2770081	-29.83799934	-10.72639465	-5.81684494	-5.754701138	1.0
28	0	-444.2770081	-29.83799934	-10.24179745	-2.997279882	-6.972263813	1.0
29	0	-444.2770081	-29.83799934	-9.878162384	-0.3346495628	-7.818651199	1.0
[RightToeBase]
27	0	-87.28699493	107.1060028	-1.943514228	1.208089361e-05	6.265003805e-08	1.0
28	0	-87.28699493	107.1060028	-0.9278781414	2.43665545e-05	-6.292490866e-07	1.0
29	0	-87.28699493	107.1060028	-0.5217359662	4.691687991e-06	1.228012252e-07	1.0
[EndOfFile]
